# xmcd
#
# Track frame offsets: 
#        182
#        15042
#        35752
#        56087
#        75002
#        92887
#        113495
#        128525
#        143642
#        163445
#        178342
#
# Disc length: 2630 seconds
#
# Revision: 0
# Processed by: cddbd v1.4PL0 Copyright (c) Steve Scherf et al.
# Submitted via: ExactAudioCopy v0.90b3
#
DISCID=820a440b
DTITLE=Stacy Dean Campbell - Ashes Of Old Love
DYEAR=1900
DGENRE=Country
TTITLE0=Makin' Good Time
TTITLE1=Ashes Of Old Love
TTITLE2=Some People (Just Can't Walk The Line)
TTITLE3=Train Not Running
TTITLE4=I'm Gonna Fly
TTITLE5=All The Winters We've Known
TTITLE6=Gone By Now
TTITLE7=One False Move
TTITLE8=Five Texas Dollars
TTITLE9=Bidding America Goodbye
TTITLE10=Rain Just Falls
EXTD=
EXTT0=
EXTT1=
EXTT2=
EXTT3=
EXTT4=
EXTT5=
EXTT6=
EXTT7=
EXTT8=
EXTT9=
EXTT10=
PLAYORDER=
